<mxfile host="Electron" agent="Mozilla/5.0 (Windows NT 10.0; Win64; x64) AppleWebKit/537.36 (KHTML, like Gecko) draw.io/27.0.5 Chrome/134.0.6998.205 Electron/35.3.0 Safari/537.36" version="27.0.5">
  <diagram name="Page-1" id="y0QCTXecs8Vl__yqIyWB">
    <mxGraphModel dx="1245" dy="562" grid="1" gridSize="10" guides="1" tooltips="1" connect="1" arrows="1" fold="1" page="1" pageScale="1" pageWidth="850" pageHeight="1100" math="0" shadow="0">
      <root>
        <mxCell id="0" />
        <mxCell id="1" parent="0" />
        <mxCell id="8NQgTMGZ4VsBAMclY4Yb-1" value="" style="rounded=0;whiteSpace=wrap;html=1;fillColor=none;strokeWidth=1;dashed=1;strokeColor=#7A7A7A;" vertex="1" parent="1">
          <mxGeometry x="40" y="80" width="120" height="520" as="geometry" />
        </mxCell>
        <mxCell id="8NQgTMGZ4VsBAMclY4Yb-2" value="&lt;font style=&quot;font-size: 18px;&quot;&gt;&lt;b&gt;HIGH LEVEL ARCHITECTURE&lt;/b&gt;&lt;/font&gt;" style="text;html=1;align=left;verticalAlign=middle;whiteSpace=wrap;rounded=0;strokeWidth=1;" vertex="1" parent="1">
          <mxGeometry x="20" y="20" width="280" height="30" as="geometry" />
        </mxCell>
        <mxCell id="8NQgTMGZ4VsBAMclY4Yb-3" value="&lt;font style=&quot;font-size: 15px;&quot;&gt;SOURCES&lt;/font&gt;" style="rounded=0;whiteSpace=wrap;html=1;strokeColor=none;fillColor=default;" vertex="1" parent="1">
          <mxGeometry x="75" y="70" width="50" height="30" as="geometry" />
        </mxCell>
        <mxCell id="8NQgTMGZ4VsBAMclY4Yb-5" value="" style="rounded=0;whiteSpace=wrap;html=1;fillColor=none;strokeWidth=1;dashed=1;strokeColor=#7A7A7A;" vertex="1" parent="1">
          <mxGeometry x="180" y="80" width="490" height="520" as="geometry" />
        </mxCell>
        <mxCell id="8NQgTMGZ4VsBAMclY4Yb-6" value="&lt;font style=&quot;font-size: 15px;&quot;&gt;DATA WAREHOUSE&lt;/font&gt;" style="rounded=0;whiteSpace=wrap;html=1;strokeColor=none;fillColor=default;" vertex="1" parent="1">
          <mxGeometry x="345.5" y="70" width="160" height="30" as="geometry" />
        </mxCell>
        <mxCell id="8NQgTMGZ4VsBAMclY4Yb-8" value="" style="rounded=0;whiteSpace=wrap;html=1;fillColor=none;strokeWidth=1;dashed=1;strokeColor=#7A7A7A;" vertex="1" parent="1">
          <mxGeometry x="690" y="80" width="120" height="520" as="geometry" />
        </mxCell>
        <mxCell id="8NQgTMGZ4VsBAMclY4Yb-9" value="&lt;font style=&quot;font-size: 15px;&quot;&gt;CONSUME&lt;/font&gt;" style="rounded=0;whiteSpace=wrap;html=1;strokeColor=none;fillColor=default;" vertex="1" parent="1">
          <mxGeometry x="725" y="60" width="50" height="30" as="geometry" />
        </mxCell>
        <mxCell id="8NQgTMGZ4VsBAMclY4Yb-11" value="&lt;b&gt;Bronze Layer&lt;/b&gt;" style="rounded=0;whiteSpace=wrap;html=1;fillColor=#ffe6cc;strokeColor=#d79b00;" vertex="1" parent="1">
          <mxGeometry x="205" y="100" width="120" height="20" as="geometry" />
        </mxCell>
        <mxCell id="8NQgTMGZ4VsBAMclY4Yb-12" value="" style="rounded=0;whiteSpace=wrap;html=1;fillColor=none;strokeColor=#d79b00;" vertex="1" parent="1">
          <mxGeometry x="190" y="130" width="150" height="460" as="geometry" />
        </mxCell>
        <mxCell id="8NQgTMGZ4VsBAMclY4Yb-13" value="&lt;b&gt;Silver Layer&lt;/b&gt;" style="rounded=0;whiteSpace=wrap;html=1;fillColor=#f5f5f5;strokeColor=#666666;fontColor=#333333;" vertex="1" parent="1">
          <mxGeometry x="365.5" y="100" width="120" height="20" as="geometry" />
        </mxCell>
        <mxCell id="8NQgTMGZ4VsBAMclY4Yb-14" value="&lt;b&gt;Gold&lt;/b&gt;&lt;b style=&quot;background-color: transparent; color: light-dark(rgb(0, 0, 0), rgb(255, 255, 255));&quot;&gt;&amp;nbsp;Layer&lt;/b&gt;" style="rounded=0;whiteSpace=wrap;html=1;fillColor=#fff2cc;strokeColor=#d6b656;" vertex="1" parent="1">
          <mxGeometry x="525" y="100" width="120" height="20" as="geometry" />
        </mxCell>
        <mxCell id="8NQgTMGZ4VsBAMclY4Yb-16" value="" style="rounded=0;whiteSpace=wrap;html=1;fillColor=none;strokeColor=light-dark(#8f8f8f, #996500);" vertex="1" parent="1">
          <mxGeometry x="348" y="130" width="155" height="460" as="geometry" />
        </mxCell>
        <mxCell id="8NQgTMGZ4VsBAMclY4Yb-17" value="" style="rounded=0;whiteSpace=wrap;html=1;fillColor=none;strokeColor=#FFF4C3;" vertex="1" parent="1">
          <mxGeometry x="510" y="130" width="150" height="460" as="geometry" />
        </mxCell>
        <mxCell id="8NQgTMGZ4VsBAMclY4Yb-18" value="CRM&lt;div&gt;&lt;br&gt;&lt;/div&gt;" style="image;aspect=fixed;html=1;points=[];align=center;fontSize=12;image=img/lib/azure2/general/Folder_Blank.svg;" vertex="1" parent="1">
          <mxGeometry x="75" y="190" width="36.96" height="30" as="geometry" />
        </mxCell>
        <mxCell id="8NQgTMGZ4VsBAMclY4Yb-19" value="" style="image;aspect=fixed;html=1;points=[];align=center;fontSize=12;image=img/lib/azure2/general/File.svg;" vertex="1" parent="1">
          <mxGeometry x="100" y="200" width="16.23" height="20" as="geometry" />
        </mxCell>
        <mxCell id="8NQgTMGZ4VsBAMclY4Yb-20" value="&lt;div&gt;ERM&lt;/div&gt;&lt;div&gt;&lt;br&gt;&lt;/div&gt;" style="image;aspect=fixed;html=1;points=[];align=center;fontSize=12;image=img/lib/azure2/general/Folder_Blank.svg;" vertex="1" parent="1">
          <mxGeometry x="75" y="290" width="36.96" height="30" as="geometry" />
        </mxCell>
        <mxCell id="8NQgTMGZ4VsBAMclY4Yb-21" value="" style="image;aspect=fixed;html=1;points=[];align=center;fontSize=12;image=img/lib/azure2/general/File.svg;" vertex="1" parent="1">
          <mxGeometry x="100" y="300" width="16.23" height="20" as="geometry" />
        </mxCell>
        <mxCell id="8NQgTMGZ4VsBAMclY4Yb-23" value="&lt;b&gt;Object Type&lt;/b&gt;: csv file&lt;div&gt;&lt;br&gt;&lt;/div&gt;&lt;div&gt;&lt;b&gt;Interface Type&lt;/b&gt;: Files from folder&lt;/div&gt;" style="text;html=1;align=center;verticalAlign=middle;whiteSpace=wrap;rounded=0;" vertex="1" parent="1">
          <mxGeometry x="40.980000000000004" y="450" width="118.04" height="30" as="geometry" />
        </mxCell>
        <mxCell id="8NQgTMGZ4VsBAMclY4Yb-26" value="" style="html=1;verticalLabelPosition=bottom;align=center;labelBackgroundColor=#ffffff;verticalAlign=top;strokeWidth=2;strokeColor=#d79b00;shadow=0;dashed=0;shape=mxgraph.ios7.icons.data;fillColor=#ffe6cc;" vertex="1" parent="1">
          <mxGeometry x="244" y="230" width="42" height="60" as="geometry" />
        </mxCell>
        <mxCell id="8NQgTMGZ4VsBAMclY4Yb-27" value="" style="html=1;verticalLabelPosition=bottom;align=center;labelBackgroundColor=#ffffff;verticalAlign=top;strokeWidth=2;strokeColor=#666666;shadow=0;dashed=0;shape=mxgraph.ios7.icons.data;fillColor=#f5f5f5;fontColor=#333333;" vertex="1" parent="1">
          <mxGeometry x="404" y="230" width="42" height="60" as="geometry" />
        </mxCell>
        <mxCell id="8NQgTMGZ4VsBAMclY4Yb-28" value="" style="html=1;verticalLabelPosition=bottom;align=center;labelBackgroundColor=#ffffff;verticalAlign=top;strokeWidth=2;strokeColor=#d6b656;shadow=0;dashed=0;shape=mxgraph.ios7.icons.data;fillColor=#fff2cc;gradientColor=#ffd966;" vertex="1" parent="1">
          <mxGeometry x="564" y="230" width="42" height="60" as="geometry" />
        </mxCell>
        <mxCell id="8NQgTMGZ4VsBAMclY4Yb-30" value="" style="endArrow=none;html=1;rounded=0;fillColor=#ffe6cc;strokeColor=#d79b00;" edge="1" parent="1">
          <mxGeometry width="50" height="50" relative="1" as="geometry">
            <mxPoint x="215" y="320" as="sourcePoint" />
            <mxPoint x="255" y="320" as="targetPoint" />
            <Array as="points">
              <mxPoint x="315" y="320" />
              <mxPoint x="215" y="320" />
            </Array>
          </mxGeometry>
        </mxCell>
        <mxCell id="8NQgTMGZ4VsBAMclY4Yb-31" value="" style="endArrow=none;html=1;rounded=0;fillColor=#f5f5f5;strokeColor=#666666;" edge="1" parent="1" source="8NQgTMGZ4VsBAMclY4Yb-40">
          <mxGeometry width="50" height="50" relative="1" as="geometry">
            <mxPoint x="375.5" y="319" as="sourcePoint" />
            <mxPoint x="415.5" y="319" as="targetPoint" />
            <Array as="points">
              <mxPoint x="475.5" y="319" />
              <mxPoint x="375.5" y="319" />
            </Array>
          </mxGeometry>
        </mxCell>
        <mxCell id="8NQgTMGZ4VsBAMclY4Yb-32" value="" style="endArrow=none;html=1;rounded=0;fillColor=#fff2cc;strokeColor=#d6b656;" edge="1" parent="1" source="8NQgTMGZ4VsBAMclY4Yb-42">
          <mxGeometry width="50" height="50" relative="1" as="geometry">
            <mxPoint x="535" y="320" as="sourcePoint" />
            <mxPoint x="575" y="320" as="targetPoint" />
            <Array as="points">
              <mxPoint x="635" y="320" />
              <mxPoint x="535" y="320" />
            </Array>
          </mxGeometry>
        </mxCell>
        <mxCell id="8NQgTMGZ4VsBAMclY4Yb-33" value="&lt;div style=&quot;text-align: left;&quot;&gt;&lt;font style=&quot;font-size: 10px;&quot;&gt;&lt;b style=&quot;background-color: transparent; color: light-dark(rgb(0, 0, 0), rgb(255, 255, 255));&quot;&gt;Object Type: &lt;/b&gt;&lt;span style=&quot;background-color: transparent; color: light-dark(rgb(0, 0, 0), rgb(255, 255, 255));&quot;&gt;Tables&lt;/span&gt;&lt;/font&gt;&lt;/div&gt;&lt;div style=&quot;text-align: left;&quot;&gt;&lt;font style=&quot;font-size: 10px;&quot;&gt;&lt;br&gt;&lt;/font&gt;&lt;/div&gt;&lt;div style=&quot;text-align: left;&quot;&gt;&lt;b&gt;&lt;font style=&quot;font-size: 10px;&quot;&gt;Load:&amp;nbsp;&lt;/font&gt;&lt;/b&gt;&lt;/div&gt;&lt;div style=&quot;text-align: left;&quot;&gt;&lt;ul&gt;&lt;li&gt;&lt;span style=&quot;font-size: 10px; background-color: transparent; color: light-dark(rgb(0, 0, 0), rgb(255, 255, 255));&quot;&gt;Batch Processing&lt;/span&gt;&lt;/li&gt;&lt;li&gt;&lt;span style=&quot;font-size: 10px; background-color: transparent; color: light-dark(rgb(0, 0, 0), rgb(255, 255, 255));&quot;&gt;Full Load&lt;/span&gt;&lt;/li&gt;&lt;li&gt;&lt;span style=&quot;font-size: 10px; background-color: transparent; color: light-dark(rgb(0, 0, 0), rgb(255, 255, 255));&quot;&gt;Truncate &amp;amp; Insert&lt;/span&gt;&lt;/li&gt;&lt;/ul&gt;&lt;/div&gt;&lt;div style=&quot;text-align: left;&quot;&gt;&lt;span style=&quot;font-size: 10px; background-color: transparent; color: light-dark(rgb(0, 0, 0), rgb(255, 255, 255));&quot;&gt;&lt;br&gt;&lt;/span&gt;&lt;/div&gt;&lt;div style=&quot;text-align: left;&quot;&gt;&lt;span style=&quot;font-size: 10px; background-color: transparent; color: light-dark(rgb(0, 0, 0), rgb(255, 255, 255));&quot;&gt;&lt;b&gt;Transformations:&lt;/b&gt;&lt;/span&gt;&lt;/div&gt;&lt;div style=&quot;text-align: left;&quot;&gt;&lt;ul&gt;&lt;li&gt;&lt;span style=&quot;font-size: 10px;&quot;&gt;Data Cleansing&lt;/span&gt;&lt;/li&gt;&lt;li&gt;&lt;span style=&quot;font-size: 10px;&quot;&gt;Data Standization&lt;/span&gt;&lt;/li&gt;&lt;li&gt;&lt;span style=&quot;font-size: 10px;&quot;&gt;Data Normilization&lt;/span&gt;&lt;/li&gt;&lt;li&gt;&lt;span style=&quot;font-size: 10px;&quot;&gt;Data Columns&lt;/span&gt;&lt;/li&gt;&lt;li&gt;&lt;span style=&quot;font-size: 10px;&quot;&gt;Data Enrochment&lt;/span&gt;&lt;/li&gt;&lt;/ul&gt;&lt;/div&gt;&lt;div style=&quot;text-align: left;&quot;&gt;&lt;span style=&quot;font-size: 10px;&quot;&gt;&lt;br&gt;&lt;/span&gt;&lt;/div&gt;&lt;div style=&quot;text-align: left;&quot;&gt;&lt;span style=&quot;font-size: 10px;&quot;&gt;&lt;b&gt;Data Model: &lt;/b&gt;None (as-is)&lt;/span&gt;&lt;/div&gt;&lt;div style=&quot;text-align: left;&quot;&gt;&lt;span style=&quot;font-size: 10px;&quot;&gt;&lt;br&gt;&lt;/span&gt;&lt;/div&gt;&lt;div style=&quot;text-align: left;&quot;&gt;&lt;span style=&quot;font-size: 10px; background-color: transparent; color: light-dark(rgb(0, 0, 0), rgb(255, 255, 255));&quot;&gt;&lt;br&gt;&lt;/span&gt;&lt;/div&gt;&lt;div style=&quot;text-align: left;&quot;&gt;&lt;span style=&quot;font-size: 10px; background-color: transparent; color: light-dark(rgb(0, 0, 0), rgb(255, 255, 255));&quot;&gt;&lt;br&gt;&lt;/span&gt;&lt;/div&gt;" style="text;html=1;align=center;verticalAlign=middle;whiteSpace=wrap;rounded=0;" vertex="1" parent="1">
          <mxGeometry x="340" y="470" width="155.5" height="20" as="geometry" />
        </mxCell>
        <mxCell id="8NQgTMGZ4VsBAMclY4Yb-36" value="" style="endArrow=none;html=1;rounded=0;fillColor=#f5f5f5;strokeColor=#000000;" edge="1" parent="1">
          <mxGeometry width="50" height="50" relative="1" as="geometry">
            <mxPoint x="50" y="360" as="sourcePoint" />
            <mxPoint x="90" y="360" as="targetPoint" />
            <Array as="points">
              <mxPoint x="150" y="360" />
              <mxPoint x="50" y="360" />
            </Array>
          </mxGeometry>
        </mxCell>
        <mxCell id="8NQgTMGZ4VsBAMclY4Yb-37" value="&lt;div style=&quot;text-align: left;&quot;&gt;&lt;font style=&quot;font-size: 10px;&quot;&gt;&lt;b style=&quot;background-color: transparent; color: light-dark(rgb(0, 0, 0), rgb(255, 255, 255));&quot;&gt;Object Type:&amp;nbsp;&lt;/b&gt;&lt;span style=&quot;background-color: transparent; color: light-dark(rgb(0, 0, 0), rgb(255, 255, 255));&quot;&gt;Tables&lt;/span&gt;&lt;/font&gt;&lt;/div&gt;&lt;div style=&quot;text-align: left;&quot;&gt;&lt;font style=&quot;font-size: 10px;&quot;&gt;&lt;br&gt;&lt;/font&gt;&lt;/div&gt;&lt;div style=&quot;text-align: left;&quot;&gt;&lt;b&gt;&lt;font style=&quot;font-size: 10px;&quot;&gt;Load:&amp;nbsp;&lt;/font&gt;&lt;/b&gt;&lt;/div&gt;&lt;div style=&quot;text-align: left;&quot;&gt;&lt;ul&gt;&lt;li&gt;&lt;span style=&quot;font-size: 10px; background-color: transparent; color: light-dark(rgb(0, 0, 0), rgb(255, 255, 255));&quot;&gt;Batch Processing&lt;/span&gt;&lt;/li&gt;&lt;li&gt;&lt;span style=&quot;font-size: 10px; background-color: transparent; color: light-dark(rgb(0, 0, 0), rgb(255, 255, 255));&quot;&gt;Full Load&lt;/span&gt;&lt;/li&gt;&lt;li&gt;&lt;span style=&quot;font-size: 10px; background-color: transparent; color: light-dark(rgb(0, 0, 0), rgb(255, 255, 255));&quot;&gt;Truncate &amp;amp; Insert&lt;/span&gt;&lt;/li&gt;&lt;/ul&gt;&lt;div&gt;&lt;span style=&quot;font-size: 10px;&quot;&gt;No&amp;nbsp;&lt;b&gt;Transformations&lt;/b&gt;&lt;/span&gt;&lt;/div&gt;&lt;div&gt;&lt;span style=&quot;font-size: 10px;&quot;&gt;&lt;b&gt;&lt;br&gt;&lt;/b&gt;&lt;/span&gt;&lt;/div&gt;&lt;div&gt;&lt;span style=&quot;font-size: 10px;&quot;&gt;&lt;b&gt;Data Model: &lt;/b&gt;None (as-is)&lt;b&gt;&amp;nbsp;&lt;/b&gt;&lt;/span&gt;&lt;/div&gt;&lt;/div&gt;" style="text;html=1;align=center;verticalAlign=middle;whiteSpace=wrap;rounded=0;" vertex="1" parent="1">
          <mxGeometry x="190" y="390" width="142" height="30" as="geometry" />
        </mxCell>
        <mxCell id="8NQgTMGZ4VsBAMclY4Yb-38" value="&lt;font style=&quot;font-size: 10px;&quot;&gt;&lt;b style=&quot;&quot;&gt;Object Type: &lt;/b&gt;Views&lt;/font&gt;&lt;div&gt;&lt;font style=&quot;font-size: 10px;&quot;&gt;&lt;br&gt;&lt;/font&gt;&lt;/div&gt;&lt;div&gt;&lt;font style=&quot;font-size: 10px;&quot;&gt;No &lt;b&gt;Loads&lt;/b&gt;&lt;/font&gt;&lt;/div&gt;&lt;div&gt;&lt;b&gt;&lt;font style=&quot;font-size: 10px;&quot;&gt;&lt;br&gt;&lt;/font&gt;&lt;/b&gt;&lt;/div&gt;&lt;div&gt;&lt;b&gt;&lt;font style=&quot;font-size: 10px;&quot;&gt;Transformations:&lt;/font&gt;&lt;/b&gt;&lt;/div&gt;&lt;div&gt;&lt;ul&gt;&lt;li&gt;&lt;font style=&quot;font-size: 10px;&quot;&gt;Data integrations&lt;/font&gt;&lt;/li&gt;&lt;li&gt;&lt;font style=&quot;font-size: 10px;&quot;&gt;Aggeregations&lt;/font&gt;&lt;/li&gt;&lt;li&gt;&lt;font style=&quot;font-size: 10px;&quot;&gt;Business Logics&lt;/font&gt;&lt;/li&gt;&lt;/ul&gt;&lt;b style=&quot;background-color: transparent; color: light-dark(rgb(0, 0, 0), rgb(255, 255, 255));&quot;&gt;&lt;font style=&quot;font-size: 10px;&quot;&gt;Data Model:&lt;/font&gt;&lt;/b&gt;&lt;/div&gt;&lt;div&gt;&lt;ul&gt;&lt;li&gt;&lt;font style=&quot;font-size: 10px;&quot;&gt;Star Schema&lt;/font&gt;&lt;/li&gt;&lt;li&gt;&lt;font style=&quot;font-size: 10px;&quot;&gt;Flat Table&lt;/font&gt;&lt;/li&gt;&lt;li&gt;&lt;font style=&quot;font-size: 10px;&quot;&gt;Aggregated Table&lt;/font&gt;&lt;/li&gt;&lt;/ul&gt;&lt;/div&gt;" style="text;html=1;align=left;verticalAlign=middle;whiteSpace=wrap;rounded=0;" vertex="1" parent="1">
          <mxGeometry x="525" y="420" width="150" height="30" as="geometry" />
        </mxCell>
        <mxCell id="8NQgTMGZ4VsBAMclY4Yb-39" value="Raw Data" style="text;html=1;align=center;verticalAlign=middle;whiteSpace=wrap;rounded=0;" vertex="1" parent="1">
          <mxGeometry x="235" y="295" width="60" height="30" as="geometry" />
        </mxCell>
        <mxCell id="8NQgTMGZ4VsBAMclY4Yb-43" value="" style="endArrow=none;html=1;rounded=0;fillColor=#fff2cc;strokeColor=#d6b656;" edge="1" parent="1" target="8NQgTMGZ4VsBAMclY4Yb-42">
          <mxGeometry width="50" height="50" relative="1" as="geometry">
            <mxPoint x="535" y="320" as="sourcePoint" />
            <mxPoint x="575" y="320" as="targetPoint" />
            <Array as="points" />
          </mxGeometry>
        </mxCell>
        <mxCell id="8NQgTMGZ4VsBAMclY4Yb-42" value="Business-Ready Data" style="text;html=1;align=center;verticalAlign=middle;whiteSpace=wrap;rounded=0;" vertex="1" parent="1">
          <mxGeometry x="520" y="295" width="130" height="30" as="geometry" />
        </mxCell>
        <mxCell id="8NQgTMGZ4VsBAMclY4Yb-44" value="" style="endArrow=none;html=1;rounded=0;fillColor=#f5f5f5;strokeColor=#666666;" edge="1" parent="1" target="8NQgTMGZ4VsBAMclY4Yb-40">
          <mxGeometry width="50" height="50" relative="1" as="geometry">
            <mxPoint x="375.5" y="319" as="sourcePoint" />
            <mxPoint x="415.5" y="319" as="targetPoint" />
            <Array as="points" />
          </mxGeometry>
        </mxCell>
        <mxCell id="8NQgTMGZ4VsBAMclY4Yb-40" value="Clean, Standardised Data" style="text;html=1;align=center;verticalAlign=middle;whiteSpace=wrap;rounded=0;" vertex="1" parent="1">
          <mxGeometry x="355" y="295" width="140" height="30" as="geometry" />
        </mxCell>
        <mxCell id="8NQgTMGZ4VsBAMclY4Yb-46" value="" style="shape=flexArrow;endArrow=classic;html=1;rounded=0;entryX=0.852;entryY=0.543;entryDx=0;entryDy=0;entryPerimeter=0;fillColor=#dae8fc;strokeColor=#6c8ebf;" edge="1" parent="1">
          <mxGeometry width="50" height="50" relative="1" as="geometry">
            <mxPoint x="134.94" y="270.22" as="sourcePoint" />
            <mxPoint x="204.99999999999994" y="270" as="targetPoint" />
          </mxGeometry>
        </mxCell>
        <mxCell id="8NQgTMGZ4VsBAMclY4Yb-47" value="" style="shape=flexArrow;endArrow=classic;html=1;rounded=0;entryX=0.852;entryY=0.543;entryDx=0;entryDy=0;entryPerimeter=0;fillColor=#d5e8d4;strokeColor=#82b366;" edge="1" parent="1">
          <mxGeometry width="50" height="50" relative="1" as="geometry">
            <mxPoint x="310" y="270.22" as="sourcePoint" />
            <mxPoint x="380.05999999999995" y="270" as="targetPoint" />
          </mxGeometry>
        </mxCell>
        <mxCell id="8NQgTMGZ4VsBAMclY4Yb-48" value="" style="shape=flexArrow;endArrow=classic;html=1;rounded=0;entryX=0.852;entryY=0.543;entryDx=0;entryDy=0;entryPerimeter=0;fillColor=#e1d5e7;strokeColor=#9673a6;" edge="1" parent="1">
          <mxGeometry width="50" height="50" relative="1" as="geometry">
            <mxPoint x="470" y="270.22" as="sourcePoint" />
            <mxPoint x="540.06" y="270" as="targetPoint" />
          </mxGeometry>
        </mxCell>
        <mxCell id="8NQgTMGZ4VsBAMclY4Yb-49" value="" style="shape=image;verticalLabelPosition=bottom;labelBackgroundColor=default;verticalAlign=top;aspect=fixed;imageAspect=0;image=https://cdn-icons-png.flaticon.com/128/7641/7641218.png;" vertex="1" parent="1">
          <mxGeometry x="723" y="450" width="54" height="54" as="geometry" />
        </mxCell>
        <mxCell id="8NQgTMGZ4VsBAMclY4Yb-50" value="" style="shape=image;verticalLabelPosition=bottom;labelBackgroundColor=default;verticalAlign=top;aspect=fixed;imageAspect=0;image=https://cdn-icons-png.flaticon.com/128/15102/15102517.png;" vertex="1" parent="1">
          <mxGeometry x="723" y="295" width="50" height="50" as="geometry" />
        </mxCell>
        <mxCell id="8NQgTMGZ4VsBAMclY4Yb-51" value="" style="image;aspect=fixed;html=1;points=[];align=center;fontSize=12;image=img/lib/azure2/power_platform/PowerBI.svg;" vertex="1" parent="1">
          <mxGeometry x="732.25" y="152.67" width="35.5" height="47.33" as="geometry" />
        </mxCell>
        <mxCell id="8NQgTMGZ4VsBAMclY4Yb-52" value="BI &amp;amp; Reporting" style="text;html=1;align=center;verticalAlign=middle;whiteSpace=wrap;rounded=0;" vertex="1" parent="1">
          <mxGeometry x="720" y="200" width="60" height="30" as="geometry" />
        </mxCell>
        <mxCell id="8NQgTMGZ4VsBAMclY4Yb-53" value="AdHoc&lt;div&gt;SQL Queries&lt;/div&gt;" style="text;html=1;align=center;verticalAlign=middle;whiteSpace=wrap;rounded=0;" vertex="1" parent="1">
          <mxGeometry x="714" y="345" width="72" height="30" as="geometry" />
        </mxCell>
        <mxCell id="8NQgTMGZ4VsBAMclY4Yb-54" value="Machine Learning" style="text;html=1;align=center;verticalAlign=middle;whiteSpace=wrap;rounded=0;" vertex="1" parent="1">
          <mxGeometry x="720" y="504" width="60" height="30" as="geometry" />
        </mxCell>
        <mxCell id="8NQgTMGZ4VsBAMclY4Yb-55" value="" style="shape=image;verticalLabelPosition=bottom;labelBackgroundColor=default;verticalAlign=top;aspect=fixed;imageAspect=0;image=data:image/png,iVBORw0KGgoAAAANSUhEUgAAAIAAAACACAYAAADDPmHLAAAABHNCSVQICAgIfAhkiAAAAAlwSFlzAAADsQAAA7EB9YPtSQAAABl0RVh0U29mdHdhcmUAd3d3Lmlua3NjYXBlLm9yZ5vuPBoAACAASURBVHic7Z13fFVF+v8/z8yccxNIAoSU24AAEZFIE6SFQIDQm6CgLioqigXLuq51f6u4rq6rfgF1WcWOqOvSVJpIC1W6ihCKoQnJvTeEXkJu7j3z/P5IwoaQBAsBQ+779eIFnKnPneecec4zz5kBQoQIESJEiBAhQoQIESJEiBAhQoQIESJEiOrHnj0H7J7Dh+tf6n5cDMSl7sDviYyMjMTdu3e/JqV/tygo+OOl7s/FgC51B34PrNm4sUOYVH8xTKO/aZh+wzQ2mobZwOGwNyAifan7V5lU6yfAkiVLWq5YtWoqBa3VGuzQFh7R2qp36uTJ7lprW25ubqdL3cfKRl3qDlwKvvhibnPTpl7SGn20xZ9DcatrWrXaVDLP/v37P9Va3wlg5SXq5kWhWinABx98UDsiIvI5RvB+1mKTZaFTWpfOa8vJPlFrXn/8+PHHoqKiDl3Ujl5Eqo0N8N57H9xumOY/TdOIMwyVbRo2aRjGJtM01xqGucUwxI7IyMjdSUlJJ4vLZGVlvWia5rG4uLh/Xsq+VyaXvQK8NGlSrVqa31WGOdQ01MuGzWxhKrOFaaouhmE0MGy2bqYyuhum0c40TNMwjALTNA8ZhnnYZjPylTLj4uNjryAi/6WWpTK4rI3Af7z6ahtbXv5GS/MN2tL3jBx521NsWbdoaL+l+UshxNa07t2f7dIlJeV4eHh0MIhOGvygZekZGnq3ZVmW1lb0oUOHRl9qWSqLy/YJ8MHYsWGnjh+fYcXG9RERkTtMU7W955578gDgk+nTrwgXKt00jWNhYbaBaWlpu0uXz8zMjFLKfM4w1QjTMAq01lfa7fZTF1+SyuWyVQAASE9NVacMvCQl3Xg6ziWtutGbyDT/HWjV5oRSZjPTZr5sGqbfMMyRaWnd5gDAhg0bahk22+02w3zMMNQKm832mFLmfaap8qKjo1+41DJdaC5rBShmUfI1KZLEVEi5LRgVJZQVbKrDaxrsdIezs144OV0wHM7PVc1In81mpEnDNk2JsPebN79iFwBkZGSYdrt9oVJqVK1atXZeankuJNVCAQBgZXJrpyXVNIAmdl2+7tOV3ToMIvCXDHiFEFECHK5rRh4TdvtJqhm5TWRufSesW7/8iLTeubbY2KBSKs5ms90XFRU1mIj4Ustzoag2CgAAC9Pa1AoPqFlC4JNO6Wvf/qZbh6+IsLbjkjVjVyYnR6qwYD2CaEQCrQnoSFL2AFiJyNrHVVz8CZvDdbzAmz3ZvzNzccHx4LZOq1efvtQy/VaqlQIAwNe9WtSMDNZYQIzXQDgtJP2j/cLVV5fOx2Mhvl3d6c8EegKABeAbEAwAkSBqAGY7gH0EbGbGZmbawEQb2n69wnuxZfotVDsFAIDlfVNizYLgYsG4F5IWC+LWbRes3l6cvqFXx6ZCiHeJ6AhJ615oOUlqerr5/BU/FOdJT01VdWyBKyGoPQEdNNAejCQAPgZvAHg5WVjSKvmbH2gsfrcLStVSAQBgQ1rH5iCaAaLTYJ7cduE34wDguz6d7wdhLBEebTVv5RQA+L5fyvuSaE7zuctnllff5v5dOlnMrwDsIKYozRwOoAYzHwSQzuCvhN/8vPXSpUcvjoQ/j8vaEVQRbRet3kxE7xChhZCUymMhvu/X+S0i/MWQ6Fk8+ACgiA4QUWJZ9WQMSk3cMqDLLABTBPCOZmovgA1m5JE6UoiuJGkiiOwEekvbAr4NvTp9sb5Xp5s29WpR86IJWwHVajGoNLtqOcclnvCOJELKpjWdPyRBQ4mo49Vzlm8umY+IDpBA05LXMoYlmfDHPk3MDxLE+PBTGN5w6dL8rQO69Asy70uallEAYHnRn7EbBrapIQts3ZjoD5r5vQKOCKzv2eEtEsZrl9JuqNYKMHzaNGtTv5RnAUwnwq1E+FpLq6B0PiLkEmhA8f+3Dkm9WhRgCginhGFc22TGot3/y0t9BLCpdB1tZ2/MAzAXwNyVg5Ijw0/z9RbErWwFd63t0ekTFtbLHRauzawkUcul2k4BxbSYt2ImgJ+ICETUW7HavnVg14ytg7o8nzGoS2sAICEOCFE4BWQO6XanYlorBKZfacZ2LTn4DBAEDTJILK6ozc6zVp0I6uBsQfQREX4g4rugxZbV3Tq8sGFgmxqVKnApqq0RWJLN/bq+SJJvJ2AyEfUhUMtCfQAItIeINgI8lEi8C/CN0Lg58YslX5WuZ8fgHimANeXKL5cmlNXO9kHJkfkBGqaZRwDowkynmHmuxfwDwA+w5nDWOK6hH0xOXze3suUGQk8AAICQNI9ASJq9/Klms5a1ZmW5BOEOAfovEdUiwg2CSBDxaEG0HArHyqxH6AdIiI9LX8/o3zVly4AukwOW8AqivwsSPwqIAWFRR+JOFBgjBWEwNO7TippAYi6R+GJlt/aTv74IhmLoCQBgU69eNY0wf26zWcvOevzuHJaaSJaYT0SRRIgDUPhYKOQ7QD+fMG3J5wCwa0iPJiDezFInJU5bujNj2DBTBQ7cqDU9zMz1NfgTzTS1edtla0v6Bb7tnfycZiS0XbBqZPG1b9I6tmZLf8aMAIng4OQlG3dVluwhBShi26Cue7SNmidNW3oSAHZdn9oWEHMJYhkJNogpFxLjhcZQEI0GUJ/BAONrjeDtYPkWmC1E6hGBYzQawGPM+getxXvadmBO0VvBWXzXNyVZa/0fQ1HLFnNXHimZtjI5ORJG4E1m9GStB3ZZsWFdZcgdUoAitg9K/c6wqdTG0xYdy7y+W2/BNJ2IvhCsHoe0dklNLevNWJgJAHtuTw0z89QTmuhJZoQx+BAz6rLmtzWoO7O1mFiMa/z54h/La29DWlotqU5/rzU91GbBytnl5VuR2m4sazyqCf1Sl61bcaHlDilAEdsGp64hDvSUynYdAe8R8UeNmncd/dPWlX8i4NoGUxfdWDL/nttTw4x8YzIzhjMDzAzNnA9N3RrOXLTmfO1t6tv5E82sW89fdev58q7oeu1DmvF3i7lv9xUbVv0WOUsTMgKLICCGhO1RZp5MoHcazUi/G2PHMhijWOClknl9I/o1t/nNdcTUi0GLii4XAAhj4vmZQ7oNrqitTf1S7gJRR4QZD/6cvqUsW/86gBcFMCu9Y5um5y3wCwgpAApX/gDYAf0sAeMbzVz8AAG8Z2j3FAb/lPDZou+Awvf8rJt6PRK0gus0kEFEgwjcjojfDkiRCMaHAKKIaMbOId1uK6utjL5dWhPwChEPa/3Fz18X6Lp8/UsgTGdJc+d37Bh9QQRHNfcEFrP1u5SmglGTiP5xxefpTxdf1yTuklx49++7qadzv8aHYG5MQg9BMG9ZkCJWM/Omk6jzYNK0aQUA7th5Q/epYHzAwAfbB6fmNf1y6fTi+r67LrW2DljTwPRki7krNpbXn/TUVGWDP5Ghr7aYGxJzA4vRgDUngtHAQMGdAF69ELKHbAAAGYO63ClA7xHhB4KY1MSMmbQvzxsVsJkzEmcu6b7r+rTrBfG/AJps84f/zTl7dt6+YT3f1eC0YFC0S/x8wYGS9e0allbfCuj5zLo+s+zUdNbiHxigjP5dPrcIP7Wcs/zhM20PSzJPH6vTGtDtg5a+FqCrmfkqZvYwY5MGb2KLd2pBP1mBwL5afuFpu3Fj4ELJHlIAABkDuswioquIkFjo/qMFBF4gCD5AdpfEV7EU9zSetmgzAOwZ1v12MP0LJDo3nLbw+zLrHNY7WhT4F4FZnrKfbBvmiXhEMycX+M3bTON0J4vRjTVSmNBas/ZoppVgvZ602CSEf1PbRRvLdDZdaKq9Amwb0qOuFQj8aLNqOoMqvwOgZ5KgaBDnCcgdBLyT2KrLJBo7VgPAziGpVxOJNUR8Z6MZ6VMrqnvnkE5x/qCxnLX+lkHDmDmDgabMvE0zr2CNVTKoV7Zasjr74kh7LtXeBijwF9wJ4qVXfPWVf8fA1AwL/B0YPcCkLfDfr5qVPhNfLAFQ6Mtn0DRAj288Y2m5g79tSI+62goM9gcxlJkTGCQZ/CY0zT9N/pUdvlp7/KIJeB6qtQJ8M6xjOJ/kP4HFyM0DOg8p0PpNIsSD8AxpvVtIGgjgTBQQkfG2Zt7RpGXqs5i59Ky6tg5NcSCghkBYQzkYbAdgJZjnkZB/vHrW0t9tKHm1ngI29kp+RAgaQ0RriDCi6Md4ucW8FU9kDEsykR+z57TjZELbtzcGtg7uMoaY7iMEOzadteoEAGy7LjUBmoeyksOlsiVoIWdZJ47NOF4juLzTtKoRMVxtFWBD7xQHgbcRWBJRBAgQhH+3mLfyAQIYADb377JSS2uUZBVF4C+1VClsaUOCh0KKYcIw60e2Tzka3f+6euFNkwwAvYlowSUW7RdRbacAra1xRFhITFtJ8DPE+KhFx1UP0jyc+ejDAu+lALXXQj8nwDsBniOVctVo2+Fonb6DHZEtWikh1UkAnwHoBiD2kgn0K6mWCrCmR6ebmDklKNDCYOoA5um7arnuvKbEMm16amoYc1AANBFCCaN1WzOqZ397RIvWQhrGHqXUX4VUy4hoLwAw839RBRWg2k0Bq7p3aiygV5PgocQiCYQeEXWO31K8XLuuV8dOhi38LtZ6uHLV80f0G1wrol0nKW02SCnvl1J2llIOkVLmKKUmCCEmEVE+M48FoIjo/11aCX8Z1UoBvu7VombNgvClRDyNSKQSI5zzqZ8WQhkRdL80zAcZiLUlp8qa3XtK0+nOkFK+p5S6WQhxRd26desSkT5x4kSsYRh/llKOkVJmEdFwFE4BVxDRA5dazl9CtZkCGBDL/WFTGPokIB4n8E4w3YT4qBfl6dP3Ij5eqpQeRliH5BMqPPwzIeV79erVWwsAPl9OKhHlFm8ZFxkZmQvgidOnT79JRFOklMsAfIIquLhWbRRgaedrxwnm6zRABM7lGjWzydLb1FXNTaNzqjDqNYBS8gl/IDCxaWLiWRtBMHMEs3VOpG94ePheZk5FoRE4BsBbF0eaC0e1UIBFydf+jcEPa10Y00eGqkUt2lwne/Q8JevUBUm5G+Atmrlzy5YtXy5dnsEulLNdHBFZzPwGgEEIPQF+fyzocM3TYP1XBkC28CM6rXcYru3wE9Wo8QaT8T0zVrAW9xZYaqctjLdv3b79vmZNm75ZXD4zM9MGZrff719fum6/399UCPECM3ctDB2vejbVZa0A89u3fhTAC1rKXO6W5keHlPXSDH+je1pqOgCsXr1mCpjebdOm5QoA2Lx582hoMWX79syDTZteMQ0ADKNGM2b+oV69emc8e3l5eS7LssZqrQcKIV4jotsBjAbgvPhS/jYuWwWY277VGA36c7B9542ie/fdMMw/9evXN6s4fcWKFS215nb5+TXaFF9r3rz5f7du3WoH9Mc//rgzukmTxElCWK20lqsA4OjRo3WCQf1EQUHBzUKIN8PCwhKJ6CQAMLMAUOU2lLwsFWBOm1YjYfHV+Xff85CId0yVwvjjwBKDDwDMeBXQt3fr9r+NIQGgWbNmr23fvt0D8Ae7du3uaVlsSYnPvV7vY35/wV1SqvcLCgqS4uLiziqnta4lhNh/MeS7kFQ5o+V8fHnN1S20wNb+GzbdZ8XGFjAYQHBfyTzp6ctGMmNVcnLy6rLqaNq06TSAWzC4CYiHg/TfNABmfU1MTPQ/Sw9+EXUBHL7wElUul90TYNC3WzYXL+aQ1j4mAa1FHIB9ALBo0aJGGnoEtO5XXh2bt29vy8zPgvkgmA+AWUHrH+0uV7n7BBKRG0CV2h4GuEyeAMxMzEwAUDz4AOD3+39kZotZpwFAenq6srR+C1rf161bt2DpOjZu3NRn06bNs4VlPaK1HhsMBm8BsJKIegH4k9frnZGbm3tNOX2oB6DcD0F+r1S515bSjHv33Wh3VNSx4cOHW2WlT5/5+XJDCpff7786IiLqSSHkkT59ek4oTl+3bp1da32jlPIWKeVym832WlJS0j4A2LFj56NKkbdx48afMjP5fL6RQsjnpVQ7pZQziXhu7dq1dwNAMBjcqZQqcxeR3zNVWgHGvfFGc5sQwTFjxmwrL8/06Z/fIqWYopT8RgipatQIS7YsqxGR6qqUuElKWVcI9a5pyilt27Y9E4iZmZlpY+ZV4eHhKSVfAffv3x8eFhY2Rkr1kJSynpTyqDTUNimEMA2jQ2XLfKGpsjbA+PHjE4TGdWMeHPN8Rfm0DnwtpJmjmTsReFe+v+CAlPKIEJivtXi2a9fkMj18gUDgXinl9JKDDwBF/3+VmSccPXp0kJRiILQeBKI5F1C8i0aVVICxY8cKS2NKwBTDSqdNnDg1IiKiIEUo6q6k0QMkmjGzYmYwc0MLnNa3Z1p6RfWvycyM4oLA6GAw2L6CbBYRHWPm2sxcS2tdKV/vVjZVUgHCatS4hTXXfXzMGN/YsWPNmBh7BympuzRUDynyGjHkBoC+AVsPg5HHLNZr5umC+QbB/DgzL61ou9cap0+Ph5TvlTw8opjMzExbZGTkLYcOHfqTlLIGM78FoLYQ4oJ+tHmxqJIKwBr3QbLxf+MmfKWkjGbmTcy0CtoaNequUWdZ4p/9d9r7grE5WOC/yQiv+Tw0P7VgwYIJzPzHspTgu+++G6w1tzp06MA9Ja9nZmZGhYWF3SOEfJiZtjDzk7Vr155LRPrkyVO3GIaxuXRdVYEqZwSOGzcuPN8fOCGlnG0a8o5HHnmk3A8sP/vssyaA2CyEGjB8+NCFzEzz5s1/VQjxJyHUO5blf7Bfv35nTgJZs2aNWyljrWGogS1btvwWALZu3eowDONhqdSNQsqZkujNevXqnQnzPnXqlEMzT46MiOhVuZJXDlXOD2BZViQASYCsaPCZmQKWfluDpw0fPnQhABAR9+/f91FmfgSk7zBtYd8sW7bsKgBIT0+PAInZAL/VsmXLbzdt2nTlli1b3iEhZgDIDLPZkhLq13+05OADQDAYTGOtK7Qpfs9UuSmgQYMGh3bu2pOnwVdUlO/DKVPuUUI2DfiN60un9evXZ8L8+fM3aSE+sjRvWr58xRtSyiZg3svMGzZu/O5zACe0lm9e3bRpme7iYrTWvQ3DqLKHSlW5KQAAXvzHPz8johulMFo//vgj53yc+fb773cyhFokhbzhtttGzCuvngULFjiVMlZJKROklJBSZksppthstvEtW7Y8UF65Yvbs2RNWq1atNdHR0a1+q0yXiio3BQAAQT/NzKc0rHN22Jg0aVJ90pjJwP+VN/izZ89vOW/e/DeIaInWPE9r/oSZ85g5ihm3BIPBfhkZGeb5+lGjRmQfFG4FW2Wpkk8AAHjxpZfuESTflErc9tijj34MAK+//o7bZuN0IeSuWrUi+5d0D0+dOrWZlMZwKUV3IYxtSsn/njx5bNnw4cOt9PRla4QQi4TA/xk22wNCiAeUlIYUYoE0jHkCWNasWbOfSvfhwIED/5FSvl+3bt2FF1P2C0mVVQAAeOmll8dIpV6TQoyDqSabQnwppTwVqFkzJTIQEJCyuxKil5CqoRJyhxBqTkxM7SUlF4IWL17ciYScReDEbt26HQWAqVOnyoZXXJFiCjGYpOyqpLxaSnlaCrFVKbVZSpkhpdwupfxXXFzcVUQULL+Xv2+qtAIAwD9ffXWoEmqSlDJGSmkpKd6XUgohhRZKrbMptWTEiBHnHAsHFA507TrR66VQ43v0SJ1SVh6gcK4PBoOtiGRbKWmAlLK3lBJCiHEOh+PRypOu8qnyCgAAEyZMiNegiUqq66VUHinE3ffee3e5xl8x8+bPf04J1bpXr7RBFeVjZrFtW2YPw5CjpZStpKR0KdXdhqFaxcfHn7MzeFXislCAYsb/618dDci/SyW7Cyn+qwQ9O2rUqB1l5Z09e94NUoqXtA5eO2DAgCOl05lZfP/99x2FENdJqboqJdcTGf9p0qTRqr17949USjxSr567ZeVLVblcVgpQzMSJb3cyDLpfSjVESjlLCPXOrbfenF7s+p0588s+ypAfGkr26tu37//OAUpPd5ummSqESJVKJUsp1xtK/efQoUMLS9oNe/bunSuUWtjA7Z5QVvtVictSAYp5//33Y4nUCKXEDUJKlxTyK6VUppDib1KoEULIXMOgNkKotlLJzlLKPCnkV1LSPL/fv6p01BAAZGZmxiqldgBo1LBhw9/V+T+/hstaAUoyefJUl2nydVKJXlKqjlLKOlJKJaXaLJR4g7T+snfv3ud1/mRmZj4lhGrQuHHDey9GvyubaqMAJUlPT1dHjpy8VilKNgx5rRCynZQSSskfiORmw5CbpJR7iCjr2muvzSmeOjIzM6OYsVMI6p6a2tGvtWgmNB3TQgQ8Hk+VXA4mh8PRxhYMZu/NzfUVX4yLi4u3EcXuz8nZ4nbHJgK27KysrErf8yYxMdGWl3ciRQi9Nysr96JurLRo0aK6gGpmGPIqIcSVSslEpaSLSMYrJU0p5TEpJSkls5o0adINAJxOZ2dibgsgP9vrrXIfhgKAEuD1ASVnADgTXWMo8brWuAbAFdpSD0qr4HUAlXZoQTGnT514SQAJlqXGOR3xL3u8OUMBwOVyNRGWVSvfsrbl5uaWFZP/m0lLSzsEYEXRn7OYOnWqbN68ee2AlLUQDJ65EQKBwPdSyh2maVZZR5ACcBCEK+Pj42vm5OScio2NjQCTuzi6WsjgGyxtHgBoEBPjCJhmewDbPR7P9oTYWDszU8CUSYD8xuPxFLhc8V1hkc72+VYACAIglyuuA1miNpRam5WVdfh/dcm2RGpHdnb2jw1iYhxB4FpNeAOMg0TUwel0NhUiYMHSXS2BYBipcFwC33uRS/kQSn36VaSMlaKQF4vCxSCmOYqoPwAYhhhIxLOKM7AlX6NAoLHbbm8XVGo+MTck1pPdDsfQgBJ3BE31tWBxp9Y6wemwL4YWPQjo43LYFwJQTrv9r6zlAxDckq3g6piYmEin05kcNNQcYtEYWk90OxyjA6bZCKAYYmonmNuBOZy0boegrMPMxwRzFDPnX5qf6fKlUAGEmAoqnAKI6QYK6umlMzLxgwCezvZ6xzOJYZroAAAw09wsr/cPQnAiMXZle71PZ/l8TwCc5YqP70OExgTsDWr6TGruGxERESCtn4DQD2R7vRNs+fk3MPjpIiNqt8V4L9vnmwzQsWyf76Nadet+D0Czxi5izrt4P031QAFAdnb29y6HvbHL5XKT1vJUMJgbbp69GsqgWKH0fgDweDz7AOxzOeJTwLwfAEiTi4G9ZwoQ7SFBTmWzPRwsyP+jJMyyQKfYOnk9kXJKv94LALuPHDnmstsNlBOckpGRUQDgHIUMcWE4Ew9AhNlg6y1mLvOAZAJv46C4BgBcrriOTofjtcLrhcaCJtpChA5nsmt0AvOOgP/0n4MaE7M9vhbElMFBozsDGZZhdAQAtzs2EYQTKLQXSlJu1G6IC8cZBRAaU8Hocbqg4IuyMhpB/U8m3OFy2GeAxXjF/HbJdK/XuwLgHS6HfanTYV8Koi1ZPt8yMP2gCF+5nPapDNRnIb7SoGcYeNTlsM9gS04lxrlOFcJul90+65zrIS4tMTExkRWlJyYm2txud3ipyyo2NjaidN7o6OgoVByVVOViFkOEqFLIsi4mJibaIiIiotxut87NzS3zq9vz1Vu/fv3ax44dCwL/2371UlIsU+KxY5b3d9Kn3wNn1gLc7tgroOXDYPRjoGGJPCfBWAvghWyfr9z4d5fd3g0CI8HoAcBdImk3CPMZ4nWPx1Pm2nxR+UeJcDMDGdle38jy8v0SnE7nlQT9MBh9ASSUSDoB0BoB/H2/11ulgzp/KwIA3A7H3WzJzcwYU2rwASAChB4MdCmrArfbHe1y2OeCsASMkTh78AGgERj3E/Rmt9P+HMpbgCJ2M9AGwAU5F89lt99HrH8A4z6cPfgAEAlwTw3d+UK0VZURLru9G4MnAbARsJGJB1mMuGyvj0iqumB0B3gSEZ9z9q3T6YxhK7gSQD8AIPACJjFEqKDLHwhGSc2NmfguANvAMJjxjMth/3dlC+V0OnuBMBGACWAdGAOKZYKQMdDcg8HvMNMFO32ryuKy2790Oezsdth3n8fCL20vkMthn+ty2NnlsGun3T6mvIJtAMPliJ9SlJdddvs5hyq6HPHji9LX/lpZinE67F8V1uX4MT4+vqIj2Mu0gaoTAoSrAYAZSw8ePHiigrxnGYNuu70Piu58gF7y+HwTyyu4EQhke3PuALC+qNWXEhMTbb+t6+VDKJQJ0EtycnLK3dgJpWSqjigCjhRuqYVGv6QgEwq/ymF4ateNHpvtPe8GWUEm/RdisQAMR37eiesBfPprOn1eCEfAcAPiF8lUjNPprEFa38eEQcRwAsgjovUsxL+ys7PP+RTN7bSPZWaHgJgZFR2dfuTQoYcI6MOEoGbcKoS4kti6FQBIGk8Vr4ie2278KGK0Y6ZMj8931smgboejD4NHEdCMC59cu8H4LNvn+wSlb06How9DDyEib5bHN9Ztt3ctHC+2g+m12nXrfnn06MEUaZFPgFBs2Xd12u1/xs+IEkpKSjIBpAIAE31U5K8/Lx7PgcUAcgEAmnr8nDK/BmYqkol7uh3xD+MXRD45nc4rBestILxKQBcQEkFoweBR0NYGpzN+1LntYThAo5m41ZHDB98nwisg9CCgNzNHSFmwG6BRAI3WOjCkrHbbAAYx/QOg0SU/NCmcPu2TGfwVgBsYaAbgSgB9QZjsdNjnJCQkhJ1VGelWAI0GY5jbbu/LhMUArgcomQSSjh49msAsIy0gSQQsfgVFe+gR4RWX3b7Q6XSWuRVaMYcPH24OIBwABPMveY3SADYUdhKVFlJtBoP/AJAFAAya4HI4vna54s7bnsvlqkusFzHQkICNELqT3eszLUZDBr8DQBLoTbc7rkVZ5VmjExENJ8IrBLoeoEcBnNq//6AHwAIAIBY3llXWZ7f3QuGRM/kQlgoEAQAAB+lJREFU4sxHKj6H/XUAtwE4QaB7pGFG2/L9tQl0KwjHCOhTkJ8/tsz+AIIJE0BYzsQ3A3QbNNYZhrFPWJaXmH9SOTk5B1wuVzK0NQtAaxB6EOsNbofjMwt4yuv1nvNNnGSO46J7ShQpz8+FGF4uXEGq+0vK/RL25ub6HA5HZ8E8C4QWAPeEFt+6HPGfMsmnPR5P2Vu6svU8ADcYO/2WlZqbm3syGwB8vr0ARruc9sZgdGdLPArgXF8FYSCY7svyeiedWzc+BKEvwN3i4+PjcnJyzgpAJaIRDAaDZnqysw8BgDs+vj0D9wJgAg3P8nrnlyjysctulyB8SIQxMTExL5Rhw11JwMosj68Xzl1sWwsU+QGys7Ozsr2+dswYg8KoF2LwzQK83eWI/ztK+eQZ+N/bAvMvjRXMK6rkvF/f/ha8Xu9P2T5fGyJ+CIVbuAqAbiHWO4r8EWe9ASQkJIQV+THAgp8pM/RM4yMAAKFnOc3uz/Z63ysrwQgLm1XUDyWJbiiZFhsbG8HgwQAgmN8pvs5E9wAAA1+XGnwAgN3n+xSFAxthmmbHMpolTfp5nDv4Zyg5sEGPz/fv+vXr/ydYUPAEER4CEA7QX1wO+zVBzcOKLWoiOs5Fq7VBKWuVV3lZMCGqsA5cjJj6YJYn5w232/0JdPApZjwAIJwZz7js9tYsxE0ejycPAAoK8q4hiBoAIFhEuOz2c3YgI4FGzAAYDqfTWaO47BkYi1HOj7137958l9P+GRj3g3AjgDP+EFOpIQDXAPBjls+3rESxlKKKD5XVn6Io3qMAYoj5XIOXEPB4Diwp99dBGatt+/btOwLgSbfb/QZbwQkAbgDQVwnxAoA/AgC0zoYonAMErKsAfFdRI6V6lVi41E+ZP7/Mb6PI6n7M6XS+Lth6nUHXgTBQQD8H4DEAIC2cxaYig98uy2zkEhEKwWAwEsVPsyJIoMLdwoXGh5pwPwGd3W63KysrK7uovRFUWP+7KBkHQXAU/kUjQBhRUd1MHHXuRXhwnlfdcpdbizo33GW3fwHCIIDHREdHP3P48OHjWTk5GS6H/TCAaAb1xM98nStc/uVrCvumf7PD55dSNPdf73LYZwPox4yHnE7ns+fcycA4ZlToJdRalxWeVmHI2n6fb73TYc8gIIktaxiACQmxsfYAkAagwGKeXKpI0f7HvEAzVXiTicL1mtKFK/KBADj/ejuz4DeIaRAAFW4YzQCsAaAZNJPAd4FxY4OYmKd/OnjwvI6AcJvtToDDALCwuMKj1ysRTYyJTOiHQldxUwDfEpBbfOtJxvv7fL6MSmm90Bh8BcQ3ApgQVOJGFNojn5c2DAEcAJAApu89Pt+TldGdn7NFzBlXKkt55n2fhHgFhACA8KCh3sN5lKleXFxjAj9XWBjT9h84UOnfGZQHl5BJWlYBAOQHg9+iaP7WRMmV1bZpWR8DCILR3uFwNGDQHwCASbxzTmbCusI0rrT+CJfDPtnpdJa5AtcGMEhT8T48R+rUqbOlOC07O/tHBopPyezrsttn2O32Mo9OredwdNFCLGcgCkAuQzx2QaUohdMR/7HL5WpSVlpSUpLJhOLDHXP35+RsB4CiV6gvAYDBf20QE+Moq7zL5WpSnpw/h725uT4Q5gMgAQwF0JaAPR6PZ1HpvAz+uPBflOx2OMq0ARISEsLO57epCAWgD7G+1eWI/wZES6CxmwVLYiT4iG4GozEAMOOvpT1+Ho/vFbfdXo8JD4AwSBIyXU77F8T8HUPkE7GDGT00uHORUXUQmgd5cjwV+Q4SXU57udNDeI2IW3fu3OkvLx0ACOgPbf3B7bCvBCGdC2VSxGh47PChP1DRkjeB/oISVjtJ60m2ZG8A7qAh17sd8a8Q0zfMnK8lGpGmwdDWHwBcg2KP5q+AmD5k8ACAHwEgGPQeyghS8Xhy5jgd9vkE9GHwZJfD3hmCp0uLfExUVwMpAX/+3WB8BuDbX9MXhUKPWRxAyWAkgwDiM+YwCDiuGU+Xs9jDWT7fg25n/CZmehGMWAAjGTQS4JJWswZhhqXxuC8nZ+95+hQNxjmvPMXk5eXdfn6xKAtAbQZSwEgpKVPRuscxMD2R5fWe9djNysrd6XQ6+xD0NDC5GJjABIAIxCg0yQi7tKV/0+FQYTVrzjl96uQhAPUABIUKfFBOVs73F9wYHmZ+CkZ/APdC070WnZEEAPIF0a/eppYASKfT2RFadxRAfQYagFBQ6LGjdbb8/Fm7jxw5dr6KYmNjI0wp+xDQlQlOAH0A1ABwQFi60/nmfJcrriNp2fx87WR5ve+jAsdGEaqew9HJIu5wRiZGPjO8gmhtnt8/+/Dhw8fLKxwfH19TStxImjqDEA/CKQL2ssXL7Tk5X2/E2W8ILrt9OBHVZmGtzc4+8LO2jHE6nb0EcwKAg1leb5mh+CVx2+2pTBhI4EaAIA3kErAxYFmfHzhwIOes/rhcrUjrdsx8JNvnm1ZRvZX2ebjTGdeTWMwGYANjsT8YHHKe5eYQl4BK2yjS4zmwkImHgxAAoYfNMDY6nc5eOFvpqn1AxqWm0jeIcNvt/ZjwMYA6RZdyAewHEAHQpGyvd1xl9yFE+VT6VrFZPt+8oOY2IMxFoaUbi0IrugmYK10BQ1TMRR0At9vt4kCgNQnhAHAwyLzS5/P96tepECFChAgRIkSIECFChAgRIkSIECFChAgRIsR5+f8b70E7GGImYQAAAABJRU5ErkJggg==;" vertex="1" parent="1">
          <mxGeometry x="170" y="60" width="40" height="40" as="geometry" />
        </mxCell>
      </root>
    </mxGraphModel>
  </diagram>
</mxfile>
